<svg width="647" height="280" viewBox="0 0 647 280" fill="none" xmlns="http://www.w3.org/2000/svg">
<path d="M367.441 248.812L359.18 227.191C367.852 225.258 375.205 222.68 381.24 219.457C387.334 216.293 391.963 212.104 395.127 206.889C398.291 201.674 399.873 195.17 399.873 187.377C399.873 182.104 399.082 176.244 397.5 169.799C395.977 163.354 394.248 157.289 392.314 151.605L414.199 144.398C416.484 150.727 418.213 157.436 419.385 164.525C420.557 171.615 421.143 178.412 421.143 184.916C421.143 196.752 418.975 207.035 414.639 215.766C410.303 224.555 404.121 231.703 396.094 237.211C388.066 242.719 378.516 246.586 367.441 248.812ZM440.654 78.2168H462.715V159.252C462.715 165.873 463.711 170.561 465.703 173.314C467.754 176.01 471.68 177.357 477.48 177.357H479.678V201H477.48C464.766 201 455.449 197.689 449.531 191.068C443.613 184.447 440.654 174.398 440.654 160.922V78.2168ZM476.162 177.357H480.381V201H476.162V177.357ZM494.268 211.986L509.473 227.191L494.268 242.396L479.062 227.191L494.268 211.986ZM503.232 142.201L523.799 139.74L525.557 163.998C525.732 167.045 526.348 169.564 527.402 171.557C528.516 173.549 530.127 175.014 532.236 175.951C534.346 176.889 537.041 177.357 540.322 177.357H542.168V201H540.146C536.162 201 532.588 200.502 529.424 199.506C526.26 198.51 523.477 197.133 521.074 195.375C518.672 193.617 516.592 191.566 514.834 189.223C511.377 192.973 507.158 195.873 502.178 197.924C497.256 199.975 492.012 201 486.445 201H478.008V177.357H486.445C493.066 177.357 497.666 176.156 500.244 173.754C502.822 171.352 504.111 167.104 504.111 161.01C504.111 157.729 504.023 154.535 503.848 151.43C503.73 148.266 503.525 145.189 503.232 142.201ZM552.715 201H538.652V177.357H552.715C557.461 177.357 560.684 175.922 562.383 173.051C564.141 170.18 565.02 166.518 565.02 162.064C565.02 158.139 564.551 153.861 563.613 149.232C562.734 144.545 561.826 139.945 560.889 135.434L582.422 129.896C583.535 135.229 584.414 140.531 585.059 145.805C585.703 151.02 586.025 156 586.025 160.746C586.025 168.422 585 175.307 582.949 181.4C580.898 187.436 577.441 192.211 572.578 195.727C567.715 199.242 561.094 201 552.715 201ZM563.086 88.5L578.291 103.705L563.086 118.91L547.881 103.705L563.086 88.5ZM627.773 78.2168V200.912H605.801V78.2168H627.773Z" fill="#8ECAE6"/>
<path d="M8.26172 248.812L0 227.191C8.67188 225.258 16.0254 222.68 22.0605 219.457C28.1543 216.293 32.7832 212.104 35.9473 206.889C39.1113 201.674 40.6934 195.17 40.6934 187.377C40.6934 182.104 39.9023 176.244 38.3203 169.799C36.7969 163.354 35.0684 157.289 33.1348 151.605L55.0195 144.398C57.3047 150.727 59.0332 157.436 60.2051 164.525C61.377 171.615 61.9629 178.412 61.9629 184.916C61.9629 196.752 59.7949 207.035 55.459 215.766C51.123 224.555 44.9414 231.703 36.9141 237.211C28.8867 242.719 19.3359 246.586 8.26172 248.812Z" fill="#FFB703"/>
<path d="M165.125 231.341C165.125 236.209 163.718 240.967 161.083 245.014C158.447 249.061 154.701 252.215 150.319 254.078C145.936 255.94 141.114 256.427 136.461 255.478C131.809 254.528 127.535 252.185 124.181 248.743C120.827 245.301 118.542 240.916 117.617 236.142C116.691 231.369 117.166 226.421 118.982 221.924C120.797 217.427 123.871 213.584 127.815 210.879C131.76 208.175 136.397 206.732 141.14 206.732C144.29 206.732 147.409 207.369 150.319 208.605C153.229 209.842 155.873 211.655 158.1 213.94C160.327 216.225 162.094 218.938 163.299 221.924C164.504 224.91 165.125 228.11 165.125 231.341ZM283.317 208.605C278.573 208.605 273.936 210.049 269.992 212.753C266.048 215.457 262.974 219.3 261.158 223.797C259.343 228.294 258.868 233.242 259.794 238.016C260.719 242.79 263.003 247.174 266.358 250.616C269.712 254.058 273.985 256.402 278.638 257.351C283.29 258.301 288.113 257.813 292.495 255.951C296.878 254.088 300.624 250.934 303.259 246.887C305.895 242.84 307.301 238.082 307.301 233.215C307.301 226.688 304.775 220.428 300.277 215.813C295.779 211.198 289.678 208.605 283.317 208.605ZM342.609 162.435H126.75V48.383C126.758 45.1501 126.142 41.9477 124.935 38.9611C123.729 35.9745 121.957 33.2632 119.722 30.9842L93.7593 4.33225C91.0559 1.55836 87.3892 -2.92277e-08 83.566 0C79.7427 2.92277e-08 76.0761 1.55836 73.3726 4.33225C70.6692 7.10614 69.1504 10.8684 69.1504 14.7912C69.1504 18.7141 70.6692 22.4763 73.3726 25.2502L97.9686 50.4625V162.435H93.1717C89.3551 162.435 85.6948 163.991 82.996 166.76C80.2973 169.529 78.7811 173.285 78.7811 177.201C78.7811 181.117 80.2973 184.873 82.996 187.642C85.6948 190.411 89.3551 191.966 93.1717 191.966H342.609C346.426 191.966 350.086 190.411 352.785 187.642C355.484 184.873 357 181.117 357 177.201C357 173.285 355.484 169.529 352.785 166.76C350.086 163.991 346.426 162.435 342.609 162.435Z" fill="#FFB703"/>
<rect x="152.15" y="129" width="169" height="20" rx="10" fill="#023047"/>
<rect x="152.15" y="97" width="169" height="20" rx="10" fill="#023047"/>
<rect x="152.15" y="65" width="169" height="20" rx="10" fill="#023047"/>
</svg>
